<svg id="Layer_1" data-name="Layer 1" xmlns="http://www.w3.org/2000/svg" xmlns:xlink="http://www.w3.org/1999/xlink" viewBox="0 0 487.49 64.04"><defs><style>.cls-1{fill:url(#linear-gradient);}.cls-2,.cls-3{fill:#fff;}.cls-3{font-size:53.5px;font-family:Montserrat;font-weight:700;letter-spacing:2px;}.cls-4{letter-spacing:3px;}</style><linearGradient id="linear-gradient" x1="6.79" y1="76.02" x2="68.97" y2="13.84" gradientUnits="userSpaceOnUse"><stop offset="0.15" stop-color="#202f8d"/><stop offset="0.5" stop-color="#1fa1c8"/><stop offset="0.85" stop-color="#43b8cb"/></linearGradient></defs><title>PROJECTSTUDIO3</title><path class="cls-1" d="M29.76,13.84a23,23,0,0,0-23,23V76H46A23,23,0,0,0,69,53V13.84H29.76Z" transform="translate(-6.79 -13.84)"/><polygon class="cls-2" points="32.17 14.22 28.1 10.14 52.01 10.18 52.04 34.09 47.97 30.01 47.95 14.24 32.17 14.22"/><polygon class="cls-2" points="14.24 47.95 14.22 32.17 10.14 28.1 10.18 52.01 34.09 52.04 30.01 47.97 14.24 47.95"/><polygon class="cls-2" points="20.98 17.27 38.16 47.97 41.21 44.92 24.03 14.22 20.98 17.27"/><text class="cls-3" transform="translate(68.65 49.81)">P<tspan x="41.3" y="0">r</tspan><tspan x="66.55" y="0">oje</tspan><tspan class="cls-4" x="159.8" y="0">c</tspan><tspan x="194.52" y="0">tStudio</tspan></text></svg>